<svg width="180" height="86" viewBox="0 0 180 86" fill="none" xmlns="http://www.w3.org/2000/svg">
<path d="M176.89 0.103605C165.43 4.7236 153.974 9.34359 142.52 13.9636C140.07 14.9536 141.14 18.9736 143.63 17.9736C153.13 14.1403 162.634 10.3069 172.14 6.4736C161.35 17.8236 150.39 29.0036 139.19 39.9436C132.03 46.9336 124.78 53.8636 117.18 60.3936C111.79 65.0236 106.3 70.2636 99.0904 70.5336C88.3204 70.9336 83.1604 59.9236 79.2304 51.7236C75.1204 43.1236 71.6004 34.2336 66.8504 25.9436C62.8004 18.8836 57.5204 11.8536 49.6704 8.85361C40.8604 5.48361 30.9904 10.0036 23.9604 15.2736C4.12037 30.1336 -6.49963 61.5836 4.31037 84.6436C5.44037 87.0736 9.03037 84.9636 7.90037 82.5436C-1.76963 61.9236 7.97037 34.4636 24.4204 20.2036C31.0004 14.4936 41.0604 9.3036 49.7004 13.3436C57.3404 16.9236 61.9804 25.3636 65.7004 32.5136C70.0404 40.8836 73.4204 49.7136 77.7604 58.0836C82.3804 67.0136 88.8504 75.0736 99.9504 74.6636C107.26 74.3936 112.88 69.3936 118.22 64.9436C125.72 58.6936 132.79 51.9336 139.8 45.1436C151.54 33.7836 163.01 22.1236 174.27 10.2836C173.064 19.2903 171.857 28.2969 170.65 37.3036C170.29 39.9536 174.46 39.9236 174.81 37.3036C176.377 25.5703 177.947 13.8369 179.52 2.10361C179.69 0.843605 178.05 -0.366395 176.89 0.103605Z" fill="black"/>
</svg>
