<svg width="145" height="61" viewBox="0 0 145 61" fill="none" xmlns="http://www.w3.org/2000/svg">
<path d="M142.5 5.552C129.866 4.93867 117.23 4.32867 104.59 3.722C101.91 3.592 101.92 7.752 104.59 7.882C115.057 8.38867 125.523 8.892 135.99 9.392C127.65 15.122 119.54 21.172 111.3 27.052C104.6 31.822 96.9399 29.802 92.3499 23.272C88.9699 18.472 87.4098 12.632 84.1898 7.722C80.9798 2.832 75.5099 -0.998001 69.4099 0.232C62.5099 1.622 56.7398 6.892 52.5598 12.302C43.8098 23.622 40.3898 38.142 31.5198 49.332C27.9798 53.802 22.9499 57.392 16.9699 56.532C10.9199 55.662 6.26986 50.502 4.15986 45.052C3.19986 42.582 -0.820154 43.652 0.149846 46.152C4.81985 58.212 18.3899 65.532 29.7299 56.932C34.8399 53.062 38.2498 47.272 41.1998 41.712C44.5098 35.462 47.3098 28.952 50.6998 22.752C54.4098 15.992 59.2298 9.602 66.0698 5.792C73.3798 1.722 78.9698 6.512 82.3698 12.812C85.1298 17.912 86.8799 23.452 90.7199 27.892C95.1399 33.002 101.75 35.132 108.23 33.202C111.39 32.252 113.98 30.222 116.59 28.302C119.203 26.382 121.83 24.4753 124.47 22.582C128.643 19.5687 132.85 16.5953 137.09 13.662C132.197 23.2553 127.303 32.8487 122.41 42.442C121.2 44.822 124.78 46.922 126.01 44.532C132.103 32.5787 138.2 20.6287 144.3 8.682C145.03 7.242 144.12 5.632 142.5 5.552Z" fill={`${s.iconColor}`}/>
</svg>
