<svg width="191" height="85" viewBox="0 0 191 85" fill="none" xmlns="http://www.w3.org/2000/svg">
<path d="M189.104 56.7996C182.091 51.8063 175.077 46.8163 168.064 41.8296C165.874 40.2696 163.804 43.8796 165.964 45.4196C171.797 49.5663 177.627 53.7129 183.454 57.8596C176.074 60.4396 169.754 58.4896 164.014 53.2296C158.464 48.1396 154.214 41.7596 148.304 37.0396C142.024 32.0196 134.614 30.5496 126.974 33.2596C113.964 37.8896 103.384 48.9396 93.8742 58.4896C88.6242 63.7496 83.3942 69.0396 77.7042 73.8396C73.3842 77.4896 67.6741 81.2396 61.7941 79.2796C55.2641 77.1096 53.2041 67.5496 52.6041 61.6796C51.8041 53.9296 53.0942 46.0496 54.3142 38.4196C55.4242 31.4296 56.6541 24.4096 56.5741 17.3196C56.5141 12.6796 55.9741 7.21959 52.9841 3.45959C45.2642 -6.22041 31.1742 6.85959 25.8142 12.8896C18.0442 21.6396 12.3241 32.2596 7.79415 42.9796C3.65415 52.7796 -2.69585 65.7196 1.23415 76.4596C2.15415 78.9596 6.17416 77.8796 5.24416 75.3596C2.89416 68.9396 5.18417 61.7496 7.31417 55.5796C9.33417 49.7496 11.7141 43.9896 14.3841 38.4296C19.9641 26.7896 27.3941 14.3296 38.5041 7.21959C42.7941 4.47959 48.5941 2.30959 50.9841 8.24959C53.0741 13.4696 52.5641 19.7796 52.0341 25.2296C50.5941 40.0796 45.6241 55.2196 50.0341 70.0396C51.7241 75.7096 55.0142 81.0396 60.6842 83.2896C65.6842 85.2796 71.4041 83.1396 75.6941 80.5096C81.6841 76.8396 86.8042 71.3896 91.7642 66.4796C97.0442 61.2496 102.194 55.8896 107.734 50.9096C113.214 45.9796 119.204 41.4896 125.844 38.2196C129.494 36.4296 133.694 35.4396 137.724 36.2396C144.864 37.6596 149.974 44.0896 154.524 49.2496C158.334 53.5496 162.244 57.9796 167.324 60.8296C170.574 62.6496 174.094 63.3896 177.624 63.2496C177.271 63.4896 176.917 63.7296 176.564 63.9696C173.997 65.7296 171.421 67.4729 168.834 69.1996C167.921 69.8063 167.001 70.4063 166.074 70.9996C165.694 71.2396 164.494 71.7396 165.174 71.5796C162.554 72.1796 163.664 76.1896 166.274 75.5896C167.664 75.2696 169.074 74.0096 170.224 73.2596C172.744 71.5863 175.254 69.8963 177.754 68.1896C181.547 65.6029 185.331 62.9996 189.104 60.3796C190.444 59.4496 190.414 57.7296 189.104 56.7996Z" fill="black"/>
</svg>
